<svg xmlns="http://www.w3.org/2000/svg" xmlns:xlink="http://www.w3.org/1999/xlink" enable-background="new -1163 1657.697 56.693 56.693" height="56px" id="Layer_1" version="1.1" viewBox="-1163 1657.697 56.693 56.693" width="56px" xml:space="preserve" ><rect id="svgEditorBackground" x="-1163" y="1657.697021484375" width="56.69300079345703" height="56.69300079345703" style="fill: none; stroke: none;"/><g><path clip-rule="evenodd" d="M-1134.6598,1662.9163c-13.601000000000113,0,-24.63000000000011,11.026699999999892,-24.63000000000011,24.629899999999907c0,10.882100000000037,7.057299999999941,20.114399999999932,16.84349999999995,23.37130000000002c1.2308000000000447,0.22790000000009059,1.6829000000000178,-0.53449999999998,1.6829000000000178,-1.1848999999999705c0,-0.5869999999999891,-0.022699999999986176,-2.527599999999893,-0.03340000000002874,-4.585700000000088c-6.852100000000064,1.490099999999984,-8.297900000000027,-2.905999999999949,-8.297900000000027,-2.905999999999949c-1.1204999999999927,-2.8467000000000553,-2.7346999999999753,-3.603900000000067,-2.7346999999999753,-3.603900000000067c-2.234899999999925,-1.5287000000000717,0.16849999999999454,-1.4972000000000207,0.16849999999999454,-1.4972000000000207c2.4729999999999563,0.17370000000005348,3.7754999999999654,2.5385000000001128,3.7754999999999654,2.5385000000001128c2.1966999999999643,3.765100000000075,5.761799999999994,2.6765000000000327,7.167500000000018,2.0471999999999753c0.22109999999997854,-1.5916999999999462,0.8590999999998985,-2.6785999999999603,1.5636999999999261,-3.2935999999999694c-5.470700000000079,-0.6225999999999203,-11.22180000000003,-2.7346999999999753,-11.22180000000003,-12.172199999999975c0,-2.688799999999901,0.9622999999999138,-4.886099999999942,2.538000000000011,-6.611000000000104c-0.2556999999999334,-0.6205999999999676,-1.0988999999999578,-3.125500000000102,0.23859999999990578,-6.518299999999954c0,0,2.0684000000001106,-0.6615999999999076,6.774699999999939,2.525000000000091c1.9647999999999683,-0.5458000000000993,4.071899999999914,-0.8195000000000618,6.164999999999964,-0.8289999999999509c2.0930000000000746,0.009499999999889042,4.2017000000000735,0.28320000000007894,6.170000000000073,0.8289999999999509c4.701199999999972,-3.1865999999999985,6.766499999999951,-2.525000000000091,6.766499999999951,-2.525000000000091c1.340599999999995,3.3928000000000793,0.49739999999997053,5.897699999999986,0.2417000000000371,6.518299999999954c1.579300000000103,1.7248999999999342,2.5347999999999047,3.9221000000000004,2.5347999999999047,6.611000000000104c0,9.460199999999986,-5.761799999999994,11.542799999999943,-11.246499999999969,12.152700000000095c0.8833999999999378,0.7644000000000233,1.6703999999999724,2.263200000000097,1.6703999999999724,4.560999999999922c0,3.2954999999999472,-0.028199999999969805,5.9478999999998905,-0.028199999999969805,6.759199999999964c0,0.6556000000000495,0.4431999999999334,1.4236000000000786,1.6914999999999054,1.1818000000000666c9.781199999999899,-3.2605000000000928,16.829600000000028,-12.48960000000011,16.829600000000028,-23.368199999999888c4.547473508864641e-13,-13.603200000000243,-11.027499999999463,-24.629900000000134,-24.629899999999452,-24.629900000000134Z" fill-rule="evenodd" fill="#ffe6cf"/><path d="M-1149.9611,1698.2793c-0.05420000000003711,0.12269999999989523,-0.24690000000009604,0.1593000000000302,-0.42219999999997526,0.07529999999997017c-0.17879999999991014,-0.0804000000000542,-0.27880000000004657,-0.24729999999999563,-0.22109999999997854,-0.36999999999989086c0.05300000000011096,-0.12599999999997635,0.24569999999994252,-0.1610000000000582,0.42419999999992797,-0.07690000000002328c0.1789000000001124,0.0805000000000291,0.28089999999997417,0.24890000000004875,0.21910000000002583,0.371599999999944l0,0ZM-1150.2642,1698.0547" fill="#ffe6cf"/><path d="M-1148.9634,1699.3922c-0.11740000000008877,0.10860000000002401,-0.3472999999999047,0.05809999999996762,-0.503099999999904,-0.11390000000005784c-0.1612999999999829,-0.17180000000007567,-0.19119999999998072,-0.4015999999999167,-0.07199999999988904,-0.5117999999999938c0.12110000000006949,-0.1087999999999738,0.34380000000010114,-0.057900000000017826,0.5050000000001091,0.11390000000005784c0.16139999999973043,0.17370000000005348,0.19279999999980646,0.4014999999999418,0.07009999999968386,0.5117999999999938l0,0ZM-1149.1984,1699.14" fill="#ffe6cf"/><path d="M-1147.9922,1700.8105c-0.1510000000000673,0.10509999999999309,-0.39789999999993597,0.006699999999909778,-0.5505000000000564,-0.21229999999991378c-0.1510000000000673,-0.21910000000002583,-0.1510000000000673,-0.481899999999996,0.003500000000030923,-0.5871999999999389c0.15259999999989304,-0.10509999999999309,0.39599999999995816,-0.010399999999890497,0.5505000000000564,0.20679999999993015c0.15059999999994034,0.22279999999977917,0.15059999999994034,0.4855999999999767,-0.003500000000030923,0.5926999999999225l0,0ZM-1147.9922,1700.8105" fill="#ffe6cf"/><path d="M-1146.6619,1702.1812c-0.1350999999999658,0.14889999999991232,-0.4227000000000771,0.10860000000002401,-0.6329000000000633,-0.09449999999992542c-0.21550000000002,-0.19839999999999236,-0.27530000000001564,-0.4802999999999429,-0.14030000000002474,-0.6293000000000575c0.1370999999999185,-0.14899999999988722,0.42630000000008295,-0.10719999999992069,0.6380999999998949,0.09439999999995052c0.21390000000019427,0.19830000000001746,0.27880000000027394,0.481899999999996,0.13510000000019318,0.6294000000000324l0,0ZM-1146.6619,1702.1812" fill="#ffe6cf"/><path d="M-1144.8265,1702.9769c-0.059700000000020736,0.19270000000005894,-0.3364999999998872,0.2804000000000997,-0.6153999999999087,0.19839999999999236c-0.27880000000004657,-0.08449999999993452,-0.46080000000006294,-0.3103000000000975,-0.404700000000048,-0.505100000000084c0.05770000000006803,-0.19430000000011205,0.33609999999998763,-0.28549999999995634,0.6168999999999869,-0.1978999999998905c0.2784999999998945,0.08400000000006003,0.46089999999981046,0.3082000000001699,0.4031999999999698,0.5045999999999822l0,0ZM-1144.8265,1702.9769" fill="#ffe6cf"/><path d="M-1142.8107,1703.1243c0.006699999999909778,0.20309999999994943,-0.2299000000000433,0.371599999999944,-0.5226000000000113,0.3751999999999498c-0.294399999999996,0.006699999999909778,-0.5329999999999018,-0.15769999999997708,-0.5361000000000331,-0.35770000000002256c0,-0.2052000000001044,0.23129999999991924,-0.3716999999999189,0.5257999999998901,-0.3768000000000029c0.29270000000019536,-0.005599999999958527,0.5329000000001543,0.15770000000020445,0.5329000000001543,0.35930000000007567l0,0ZM-1142.8107,1703.1243" fill="#ffe6cf"/><path d="M-1140.9351,1702.8052c0.035000000000081855,0.19800000000009277,-0.16859999999996944,0.4014999999999418,-0.4593999999999596,0.4556999999999789c-0.2859000000000833,0.05259999999998399,-0.5504000000000815,-0.07009999999991123,-0.5869999999999891,-0.2664999999999509c-0.035399999999981446,-0.20309999999994943,0.1715999999998985,-0.40660000000002583,0.457300000000032,-0.4592000000000098c0.29119999999988977,-0.05060000000003129,0.5519999999999072,0.06839999999988322,0.5890999999999167,0.2699999999999818l0,0ZM-1140.9351,1702.8052" fill="#ffe6cf"/></g></svg>