<svg xmlns="http://www.w3.org/2000/svg" height="48px" viewBox="0 0 48 48" width="48px"  xmlns:xlink="http://www.w3.org/1999/xlink"><rect id="svgEditorBackground" x="0" y="0" width="48" height="48" style="fill: none; stroke: none;"/><path d="M0 0h48v48h-48z" fill="none"/><path d="M23.99,4c-11.05,0,-19.99,8.95,-19.99,20s8.94,20,19.99,20c11.05,0,20.01,-8.950000000000003,20.01,-20s-8.96,-20,-20.01,-20ZM37.839999999999996,16h-5.899999999999999c-0.6499999999999986,-2.5,-1.5599999999999987,-4.9,-2.7600000000000016,-7.120000000000001c3.6800000000000033,1.2599999999999998,6.739999999999998,3.8100000000000005,8.66,7.120000000000001ZM23.999999999999996,8.07c1.6700000000000017,2.4000000000000004,2.969999999999999,5.07,3.8200000000000003,7.93h-7.640000000000001c0.8500000000000014,-2.8599999999999994,2.1499999999999986,-5.530000000000001,3.8200000000000003,-7.93ZM8.519999999999996,28c-0.33000000000000007,-1.2800000000000011,-0.5199999999999996,-2.620000000000001,-0.5199999999999996,-4s0.1899999999999995,-2.719999999999999,0.5199999999999996,-4h6.75c-0.16000000000000014,1.3099999999999987,-0.2699999999999996,2.6400000000000006,-0.2699999999999996,4c0,1.3599999999999994,0.10999999999999943,2.6900000000000013,0.27999999999999936,4h-6.76ZM10.149999999999997,32h5.9c0.6499999999999986,2.5,1.5599999999999987,4.899999999999999,2.7600000000000016,7.130000000000003c-3.6799999999999997,-1.259999999999998,-6.74,-3.8200000000000003,-8.66,-7.130000000000003ZM16.049999999999997,16h-5.9c1.92,-3.3100000000000005,4.98,-5.870000000000001,8.659999999999998,-7.129999999999999c-1.1999999999999993,2.2300000000000004,-2.1099999999999994,4.629999999999999,-2.7600000000000016,7.129999999999999ZM23.999999999999996,39.93c-1.6600000000000001,-2.3999999999999986,-2.960000000000001,-5.07,-3.8200000000000003,-7.93h7.640000000000001c-0.8599999999999994,2.8599999999999994,-2.16,5.530000000000001,-3.8200000000000003,7.93ZM28.679999999999996,28h-9.36c-0.19000000000000128,-1.3099999999999987,-0.3200000000000003,-2.6400000000000006,-0.3200000000000003,-4c0,-1.3599999999999994,0.129999999999999,-2.6900000000000013,0.3200000000000003,-4h9.36c0.19000000000000128,1.3099999999999987,0.3200000000000003,2.6400000000000006,0.3200000000000003,4c0,1.3599999999999994,-0.129999999999999,2.6900000000000013,-0.3200000000000003,4ZM29.189999999999998,39.12c1.1999999999999993,-2.229999999999997,2.1099999999999994,-4.619999999999997,2.7600000000000016,-7.120000000000001h5.900000000000002c-1.9299999999999997,3.3099999999999987,-4.990000000000002,5.860000000000003,-8.66,7.120000000000001ZM32.72,28c0.1599999999999966,-1.3099999999999987,0.28000000000000114,-2.6400000000000006,0.28000000000000114,-4c0,-1.3599999999999994,-0.10999999999999943,-2.6900000000000013,-0.28000000000000114,-4h6.75c0.3299999999999983,1.2800000000000011,0.5300000000000011,2.620000000000001,0.5300000000000011,4s-0.18999999999999773,2.719999999999999,-0.5300000000000011,4h-6.75Z" fill="#ffe6cf"/></svg>