<svg xmlns="http://www.w3.org/2000/svg" xmlns:xlink="http://www.w3.org/1999/xlink" enable-background="new 0 0 56.693 56.693" height="56px" id="Layer_1" version="1.1" viewBox="0 0 56.693 56.693" width="56px" xml:space="preserve" ><rect id="svgEditorBackground" x="0" y="0" width="56.69300079345703" height="56.69300079345703" style="fill: none; stroke: none;"/><g><path d="M28.347,5.155c-13.6,0,-24.625,11.024999999999999,-24.625,24.625c0,13.602000000000004,11.025,24.625,24.625,24.625c13.597999999999999,0,24.622999999999998,-11.022999999999996,24.622999999999998,-24.625c0,-13.599,-11.025999999999996,-24.625,-24.622999999999998,-24.625ZM42.062,41.741c0,1.0960000000000036,-0.9099999999999966,1.9819999999999993,-2.030999999999999,1.9819999999999993h-23.418c-1.1229999999999993,0,-2.0310000000000006,-0.8870000000000005,-2.0310000000000006,-1.9819999999999993v-23.689c0,-1.0940000000000012,0.9079999999999995,-1.9819999999999993,2.0310000000000006,-1.9819999999999993h23.417c1.1210000000000022,0,2.030999999999999,0.8889999999999993,2.030999999999999,1.9819999999999993v23.689Z" fill="#ffe6cf"/><path d="M33.099,26.441c-2.2010000000000005,0,-3.187999999999999,1.2089999999999996,-3.740000000000002,2.061v0.04100000000000037h-0.027000000000001023c0.010000000000001563,-0.012000000000000455,0.019999999999999574,-0.027000000000001023,0.027000000000001023,-0.04100000000000037v-1.7680000000000007h-4.149999999999999c0.054999999999999716,1.1699999999999982,0,12.483999999999998,0,12.483999999999998h4.149999999999999v-6.972999999999999c0,-0.375,0.027000000000001023,-0.7439999999999998,0.13700000000000045,-1.0120000000000005c0.3009999999999984,-0.7439999999999998,0.9840000000000018,-1.5199999999999996,2.1290000000000013,-1.5199999999999996c1.5040000000000013,0,2.1040000000000028,1.1460000000000008,2.1040000000000028,2.8240000000000016v6.68h4.149999999999999v-7.1569999999999965c-0.0009999999999976694,-3.836000000000002,-2.049999999999997,-5.619000000000003,-4.780000000000001,-5.619000000000003Z" fill="#ffe6cf"/><path d="M20.864,20.712c-1.4190000000000005,0,-2.349,0.934000000000001,-2.349,2.158999999999999c0,1.1969999999999992,0.8999999999999986,2.1580000000000013,2.2940000000000005,2.1580000000000013h0.027000000000001023c1.4469999999999992,0,2.347999999999999,-0.9609999999999985,2.347999999999999,-2.1580000000000013c-0.027000000000001023,-1.2249999999999979,-0.9000000000000021,-2.158999999999999,-2.3200000000000003,-2.158999999999999Z" fill="#ffe6cf"/><rect height="12.484" width="4.151" x="18.762" y="26.734" fill="#ffe6cf"/></g></svg>