<svg xmlns="http://www.w3.org/2000/svg" xmlns:xlink="http://www.w3.org/1999/xlink" enable-background="new -1163 1657.697 56.693 56.693" height="56px" id="Layer_1" version="1.1" viewBox="-1163 1657.697 56.693 56.693" width="56px" xml:space="preserve" ><rect id="svgEditorBackground" x="-1163" y="1657.697021484375" width="56.69300079345703" height="56.69300079345703" style="fill: none; stroke: none;"/><path d="M-1134.653,1662.9163c-13.59960000000001,0,-24.625,11.023400000000038,-24.625,24.623000000000047s11.02539999999999,24.625,24.625,24.625c13.598500000000058,0,24.62390000000005,-11.02539999999999,24.62390000000005,-24.625s-11.025300000000016,-24.623000000000047,-24.62390000000005,-24.623000000000047ZM-1138.1688,1680.2804l10.588500000000067,6.245200000000068l-1.3339000000000851,2.261199999999917l-10.589099999999917,-6.245499999999993l1.3344999999999345,-2.2608999999999924ZM-1141.0013,1686.3375l11.87130000000002,3.1912999999999556l-0.6813999999999396,2.5354999999999563l-11.871900000000096,-3.1912999999999556l0.6820000000000164,-2.5354999999999563ZM-1142.1785,1691.8271l12.240800000000036,1.1278999999999542l-0.24080000000003565,2.613900000000058l-12.24109999999996,-1.1270999999999276l0.24109999999996035,-2.6147000000000844ZM-1130.2347,1696.3214l0.0016000000000531145,2.6257000000000517l-12.29359999999997,0.005699999999933425l-0.001199999999926149,-2.6253999999998996l12.293199999999842,-0.0060000000000854925ZM-1126.0458,1702.4907c0,0,0,0.6132999999999811,-0.02060000000005857,0.6132999999999811v0.009999999999990905h-19.669399999999996c0,0,-0.6130000000000564,0,-0.6130000000000564,-0.009999999999990905h-0.020899999999983265v-12.79359999999997h2.099999999999909v10.733600000000024h16.1241v-10.733600000000024h2.099899999999934v12.180299999999988ZM-1127.153,1686.1653l-6.926600000000008,-10.156199999999899l2.169399999999996,-1.4791999999999916l6.926099999999906,10.15689999999995l-2.168899999999894,1.47849999999994ZM-1124.5138,1684.5271l-2.1024999999999636,-12.111599999999953l2.586900000000014,-0.4490000000000691l2.1030000000000655,12.111699999999928l-2.587400000000116,0.4489000000000942Z" fill="#ffe6cf"/></svg>